<svg width="500" height="472" viewBox="0 0 500 472" fill="none" xmlns="http://www.w3.org/2000/svg">
<path d="M268.37 18.8941C243.55 18.659 93.208 16.3322 88.7893 58.2277C84.5586 98.3604 142.813 83.6588 143.377 101.475C143.976 120.184 132.871 125.59 101.857 124.403C88.425 123.886 46.0124 128.645 45.3308 155.416C44.6492 182.034 92.0093 178.673 89.6707 200.766C88.3075 225.868 52.3467 231.333 38.1739 237.973C22.7789 246.023 -5.55492 259.303 0.955627 287.801C9.52276 320.847 63.934 314.901 84.4293 318.979C98.1203 321.2 141.638 325.043 135.444 354.328C132.189 371.933 96.4633 372.955 103.291 395.531C110.201 416.637 172.498 420.809 185.12 421.502C237.51 424.334 352.537 428.965 403.775 407.353C422.614 399.491 439.243 390.019 437.315 361.767C436.375 336.536 422.766 332.846 445.694 313.35C460.184 300.799 487.919 301.809 486.274 265.19C485.392 245.435 434.847 237.233 435.976 216.549C437.738 184.055 499.777 211.649 500 154.182C500.141 118.315 387.276 138.376 388.427 102.897C386.911 88.5005 411.743 82.3896 410.685 66.4422C411.25 40.9289 382.011 22.0318 268.37 18.8941Z" fill="#0B7077"/>
<path d="M169.877 279.104C169.76 279.175 169.607 279.222 169.431 279.222C140.627 279.222 111.823 279.222 83.0189 279.222C82.6311 279.222 82.255 278.952 82.161 278.576C81.2209 274.462 85.9686 271.242 89.1769 272.817C89.6235 270.725 91.6918 269.292 93.8542 269.55C92.6672 265.801 94.3125 262.005 98.2494 260.172C101.869 258.492 105.253 259.878 107.404 262.616C108.638 256.259 114.126 250.759 120.813 250.289C124.444 250.042 128.287 251.064 131.119 253.45C133.94 255.812 134.857 258.409 135.562 261.594C137.677 258.562 141.085 257.128 145.022 258.351C148.9 259.549 149.394 263.51 149.217 267.07C152.343 264.473 156.104 263.216 160.182 265.672C163.566 267.705 164.307 270.984 164.448 274.545C167.233 272.888 170.112 274.533 170.336 278.34C170.347 278.728 170.147 278.987 169.877 279.104Z" fill="#EAF9F3"/>
<path d="M410.921 100.029C410.921 116.588 455.86 119.643 458.187 100.029C460.537 80.4035 410.921 75.1504 410.921 100.029Z" fill="#0B7077"/>
<path d="M48.1045 354.798C48.1045 371.369 103.714 374.565 105.736 354.798C108.215 330.425 48.1045 325.795 48.1045 354.798Z" fill="#0B7077"/>
<path d="M372.222 448.238C372.222 467.887 438.173 471.683 440.571 448.238C443.509 419.34 372.222 413.84 372.222 448.238Z" fill="#0B7077"/>
<path d="M43.4033 101.192C43.4033 112.004 74.0523 114.096 75.1687 101.192C76.5319 85.2803 43.4033 82.2601 43.4033 101.192Z" fill="#0B7077"/>
<path d="M219.059 293.806C219.976 289.211 213.171 284.98 207.93 286.673C208.788 283.523 207.812 280.656 203.159 279.245C201.22 278.658 198.893 278.669 196.848 279.222C200.514 271.912 197.106 263.592 185.778 261.876C173.462 260.007 159.794 266.048 157.35 275.779C147.337 265.93 126.113 277.729 132.377 289.058C128.511 288.447 124.515 290.633 124.28 293.888C120.366 292.56 117.276 296.556 119.697 299.987C119.873 300.234 120.237 300.399 120.59 300.399C155.434 300.399 190.29 300.399 225.135 300.399C225.405 300.399 225.616 300.328 225.769 300.234C225.934 300.14 226.063 299.999 226.134 299.799C227.332 296.391 222.937 293.171 219.059 293.806Z" fill="white"/>
<path d="M220.14 371.78C220.551 369.747 217.531 367.878 215.216 368.631C215.592 367.232 215.169 365.975 213.112 365.352C212.255 365.093 211.232 365.093 210.327 365.34C211.949 362.108 210.433 358.43 205.427 357.666C199.986 356.832 193.933 359.511 192.852 363.812C188.422 359.452 179.044 364.67 181.805 369.688C180.09 369.418 178.327 370.382 178.221 371.827C176.494 371.24 175.119 373.002 176.2 374.53C176.282 374.636 176.435 374.706 176.599 374.706C192.006 374.706 207.413 374.706 222.831 374.706C222.949 374.706 223.043 374.683 223.113 374.636C223.184 374.589 223.243 374.53 223.278 374.436C223.795 372.932 221.856 371.498 220.14 371.78Z" fill="white"/>
<path d="M406.76 183.291C406.854 183.35 406.96 183.385 407.101 183.385C428.525 183.385 449.949 183.385 471.384 183.385C471.666 183.385 471.96 183.185 472.019 182.903C472.724 179.848 469.186 177.45 466.801 178.614C466.46 177.063 464.92 175.993 463.322 176.193C464.204 173.408 462.981 170.576 460.055 169.224C457.364 167.967 454.849 169.001 453.251 171.046C452.334 166.31 448.244 162.22 443.273 161.879C440.57 161.691 437.715 162.455 435.611 164.229C433.508 165.992 432.826 167.92 432.309 170.282C430.734 168.025 428.196 166.968 425.27 167.873C422.379 168.766 422.014 171.715 422.155 174.36C419.828 172.432 417.031 171.492 413.999 173.314C411.485 174.83 410.932 177.262 410.826 179.907C408.758 178.673 406.619 179.895 406.443 182.727C406.419 183.009 406.56 183.197 406.76 183.291Z" fill="white"/>
<path d="M239.214 67.8641C239.272 67.8994 239.355 67.9229 239.437 67.9229C253.915 67.9229 268.393 67.9229 282.872 67.9229C283.06 67.9229 283.26 67.7936 283.307 67.5939C283.788 65.5255 281.391 63.9038 279.781 64.7029C279.558 63.657 278.512 62.9284 277.431 63.0576C278.03 61.1773 277.207 59.2618 275.221 58.3451C273.4 57.499 271.708 58.1923 270.626 59.5791C270.003 56.3825 267.242 53.6208 263.881 53.3858C262.059 53.2565 260.12 53.7736 258.698 54.9723C257.276 56.1593 256.818 57.4637 256.465 59.062C255.408 57.5342 253.692 56.8174 251.718 57.4285C249.767 58.0278 249.52 60.0256 249.614 61.8119C248.039 60.5075 246.159 59.8729 244.102 61.1068C242.398 62.1292 242.034 63.7745 241.963 65.5608C240.565 64.7264 239.119 65.5608 239.002 67.4646C238.99 67.6761 239.084 67.8054 239.214 67.8641Z" fill="white"/>
<path d="M342.124 444.759C342.124 444.595 342.065 444.454 341.995 444.348C341.877 444.101 341.642 443.913 341.278 443.925C330.337 444.101 319.408 444.278 308.467 444.454C308.02 444.466 307.609 444.83 307.62 445.3C307.879 451.623 307.35 458.145 308.396 464.409C309.371 470.249 315.776 470.696 320.724 470.978C327.07 471.342 336.119 471.566 339.762 468.216C343.981 464.315 342.335 450.953 342.124 444.759Z" fill="#82B7BC"/>
<path d="M313.32 457.111C308.361 457.111 307.221 452.434 307.209 452.386C307.15 452.116 307.315 451.846 307.585 451.787C307.867 451.728 308.126 451.893 308.196 452.163C308.243 452.351 309.395 456.946 314.777 455.971C318.362 455.324 318.632 447.815 318.632 447.744C318.644 447.498 318.832 447.286 319.079 447.251C319.314 447.216 319.56 447.368 319.631 447.615C319.725 447.944 319.819 448.367 319.936 448.849C320.348 450.671 320.982 453.409 322.287 454.561C323.932 455.994 327.704 456.171 329.644 455.301C331.665 454.514 332.64 451.681 332.57 449.119C332.523 448.755 332.487 448.367 332.464 447.991C332.452 447.721 332.652 447.498 332.922 447.474C333.181 447.451 333.428 447.639 333.475 447.897C333.533 448.273 333.569 448.649 333.58 449.025C334.003 451.775 335.613 454.067 337.67 454.69C339.304 455.172 340.878 454.478 342.124 452.739C342.289 452.516 342.606 452.457 342.829 452.622C343.052 452.786 343.111 453.103 342.947 453.327C341.454 455.418 339.421 456.276 337.388 455.654C335.649 455.136 334.203 453.679 333.334 451.752C332.864 453.785 331.771 455.571 330.055 456.241C327.81 457.24 323.627 457.064 321.64 455.324C320.454 454.29 319.784 452.351 319.337 450.624C318.867 453.139 317.715 456.464 314.989 456.958C314.378 457.064 313.825 457.111 313.32 457.111Z" fill="#A3D0D8"/>
<path d="M324.12 441.704C320.642 441.704 308.843 441.857 307.55 444.524C305.823 448.261 325.025 447.968 328.739 447.85C346.308 447.263 348.4 440.823 324.12 441.704Z" fill="#709DA0"/>
<path d="M324.121 441.022C322.111 441.022 305.259 440.728 306.798 445.288C307.551 447.509 311.111 447.709 313.003 447.979C317.175 448.555 321.43 448.579 325.637 448.567C329.362 448.543 333.076 448.355 336.754 447.697C338.399 447.403 341.96 446.839 342.689 444.924C344.557 440 325.449 440.987 324.121 441.022C323.251 441.046 323.251 442.397 324.121 442.374C327.964 442.256 331.783 442.256 335.614 442.62C336.284 442.691 342.971 443.584 340.785 445.006C336.742 447.65 330.279 447.18 325.649 447.215C320.478 447.262 314.954 447.356 309.936 446.017C307.504 445.37 309.149 443.96 310.759 443.49C312.451 442.996 314.261 442.844 316 442.679C318.691 442.421 321.418 442.374 324.133 442.362C324.99 442.374 324.99 441.022 324.121 441.022Z" fill="#A3D0D8"/>
<path d="M342.359 404.474C342.136 417.765 341.666 431.056 341.489 444.336C341.478 444.982 342.488 444.982 342.5 444.336C342.676 431.056 343.158 417.753 343.37 404.474C343.381 403.827 342.359 403.827 342.359 404.474Z" fill="#82B7BC"/>
<path d="M305.036 404.25C305.447 417.706 305.623 431.115 307.033 444.512C307.104 445.147 308.115 445.159 308.044 444.512C306.634 431.115 306.458 417.706 306.046 404.25C306.034 403.604 305.012 403.592 305.036 404.25Z" fill="#82B7BC"/>
<path d="M323.251 406.495C324.379 420.057 322.968 433.665 324.144 447.227C324.202 447.873 325.213 447.873 325.154 447.227C323.967 433.665 325.389 420.057 324.261 406.495C324.202 405.86 323.192 405.849 323.251 406.495Z" fill="#82B7BC"/>
<path d="M394.409 288.706C390.167 277.953 382.352 267.247 370.118 265.038C370.024 265.026 369.942 265.026 369.859 265.014C369.789 265.003 369.73 264.979 369.66 264.979C360.528 264.051 355.217 273.158 351.997 280.127C346.203 292.725 343.664 306.839 341.385 320.377C336.919 347.019 332.312 376.211 340.127 402.617C340.55 404.074 342.501 404.262 343.312 403.029C351.667 390.184 368.908 385.788 379.931 375.541C391.448 364.835 397.3 349.181 399.169 334.033C401.072 318.591 400.168 303.314 394.409 288.706Z" fill="#A3D0D8"/>
<path d="M303.461 331.8C299.406 309.883 289.829 287.966 278.782 268.54C278.394 267.87 277.771 267.647 277.172 267.729C276.925 267.741 276.667 267.799 276.396 267.929C265.291 273.64 259.321 284.581 255.584 295.886C251.564 308.014 249.461 322.798 251.329 335.49C253.739 351.919 263.023 366.433 275.256 377.656C285.269 386.87 297.738 392.828 306.693 403.357C307.692 404.533 309.678 403.545 309.666 402.147C309.431 378.69 307.739 354.904 303.461 331.8Z" fill="#BCE0E8"/>
<path d="M356.297 252.334C346.484 246.975 335.014 246.07 324.179 248.221C323.509 248.35 323.133 248.75 322.992 249.231C316.434 258.586 315.471 271.666 314.519 282.607C313.003 299.812 313.414 317.193 314.178 334.421C315.212 357.643 317.163 380.923 320.124 403.992C320.242 404.909 320.829 405.696 321.864 405.696C328.515 405.696 335.167 405.696 341.83 405.696C342.418 405.696 343.052 405.379 343.334 404.85C361.761 371.004 366.92 330.296 370.011 292.561C370.716 283.958 371.28 275.321 371.421 266.695C371.492 260.983 360.445 254.602 356.297 252.334Z" fill="#BCE0E8"/>
<path d="M328.645 254.884C325.519 236.868 293.719 251.241 285.304 257.399C277.524 263.087 275.409 268.469 274.916 277.166C274.081 291.656 274.869 306.228 276.702 320.612C279.228 340.367 284.235 360.028 292.273 378.349C294.717 383.932 297.397 389.385 300.335 394.732C301.663 397.153 304.601 404.838 307.457 405.614C311.675 406.754 317.469 405.673 321.841 405.673C322.71 405.673 323.239 405.156 323.439 404.533C323.51 404.368 323.568 404.18 323.58 403.969C326.33 371.122 328.504 338.193 329.632 305.253C330.196 288.741 331.489 271.29 328.645 254.884Z" fill="#A3D0D8"/>
<path d="M304.589 406.436C317.469 408.834 331.066 408.681 343.935 406.436C347.613 405.802 346.05 400.866 342.383 401.512C330.596 403.557 317.939 403.71 306.141 401.512C302.474 400.831 300.911 405.766 304.589 406.436Z" fill="#82B7BC"/>
<path d="M185.73 86.0445C185.73 85.974 185.707 85.9152 185.671 85.8682C185.613 85.7624 185.519 85.6802 185.366 85.6802C180.63 85.7624 175.894 85.8329 171.146 85.9152C170.958 85.9152 170.77 86.0797 170.782 86.2795C170.899 89.0177 170.664 91.8382 171.123 94.5529C171.546 97.0795 174.319 97.2793 176.458 97.3968C179.208 97.5613 183.133 97.6554 184.708 96.1981C186.541 94.5176 185.824 88.7357 185.73 86.0445Z" fill="#8CA8AF"/>
<path d="M173.262 91.4032C171.111 91.4032 170.618 89.3818 170.618 89.3583C170.594 89.2408 170.665 89.1233 170.782 89.0998C170.9 89.0763 171.017 89.1468 171.041 89.2643C171.064 89.3466 171.558 91.3327 173.897 90.9096C175.448 90.6275 175.565 87.384 175.565 87.3488C175.565 87.243 175.648 87.149 175.753 87.1372C175.859 87.1255 175.965 87.1842 175.988 87.29C176.024 87.431 176.071 87.619 176.118 87.8306C176.294 88.618 176.564 89.8049 177.14 90.3102C177.857 90.9331 179.49 91.0036 180.325 90.6275C181.194 90.2867 181.629 89.0645 181.594 87.9481C181.571 87.7836 181.559 87.619 181.547 87.4545C181.547 87.337 181.629 87.243 181.747 87.2312C181.853 87.2195 181.97 87.3017 181.982 87.4193C182.005 87.5838 182.017 87.7366 182.029 87.9128C182.217 89.0998 182.91 90.0987 183.803 90.369C184.509 90.5805 185.19 90.275 185.731 89.5229C185.801 89.4288 185.942 89.4053 186.036 89.4758C186.13 89.5464 186.154 89.6874 186.083 89.7814C185.437 90.6863 184.556 91.0624 183.674 90.7921C182.922 90.5688 182.287 89.9342 181.911 89.0998C181.712 89.9812 181.23 90.7568 180.489 91.0389C179.514 91.4737 177.704 91.3914 176.846 90.6393C176.329 90.1927 176.047 89.3466 175.847 88.6062C175.636 89.6991 175.142 91.1329 173.955 91.3562C173.709 91.3797 173.473 91.4032 173.262 91.4032Z" fill="#A9C0C9"/>
<path d="M177.939 84.7163C176.435 84.7163 171.323 84.7868 170.759 85.9385C170.007 87.5602 178.327 87.4309 179.937 87.3839C187.541 87.1254 188.457 84.3402 177.939 84.7163Z" fill="#6B7D7E"/>
<path d="M177.939 84.4343C177.069 84.4343 169.771 84.3051 170.43 86.2794C170.759 87.243 172.298 87.3253 173.121 87.4428C174.931 87.6896 176.776 87.7014 178.597 87.7014C180.207 87.6896 181.817 87.6074 183.415 87.3253C184.132 87.196 185.672 86.9493 185.989 86.1266C186.788 83.9878 178.515 84.4108 177.939 84.4343C177.563 84.4461 177.563 85.0337 177.939 85.0219C179.596 84.9749 181.265 84.9632 182.922 85.1277C183.216 85.163 186.107 85.539 185.166 86.1619C183.415 87.3018 180.618 87.102 178.609 87.1255C176.364 87.149 173.979 87.1843 171.805 86.6085C170.759 86.3264 171.464 85.7153 172.157 85.5155C172.886 85.304 173.673 85.2335 174.425 85.163C175.589 85.0454 176.776 85.0337 177.951 85.0219C178.315 85.0102 178.315 84.4226 177.939 84.4343Z" fill="#A9C0C9"/>
<path d="M185.836 68.5929C185.742 74.3513 185.53 80.1097 185.46 85.8682C185.46 86.1502 185.895 86.1502 185.895 85.8682C185.977 80.1097 186.177 74.3513 186.283 68.5929C186.283 68.3108 185.836 68.3108 185.836 68.5929Z" fill="#8CA8AF"/>
<path d="M169.665 68.4986C169.842 74.3276 169.924 80.133 170.535 85.9385C170.558 86.2205 171.005 86.2205 170.97 85.9385C170.359 80.133 170.288 74.3276 170.1 68.4986C170.1 68.2166 169.654 68.2166 169.665 68.4986Z" fill="#8CA8AF"/>
<path d="M177.562 69.4742C178.056 75.3502 177.433 81.2496 177.95 87.1256C177.974 87.4076 178.409 87.4076 178.385 87.1256C177.868 81.2496 178.491 75.3502 177.997 69.4742C177.974 69.1922 177.539 69.1922 177.562 69.4742Z" fill="#8CA8AF"/>
<path d="M208.388 18.4358C206.555 13.7821 203.17 9.1401 197.858 8.17644C197.823 8.16469 197.788 8.16469 197.741 8.16469C197.705 8.16469 197.682 8.15294 197.658 8.14118C193.698 7.74162 191.395 11.6785 190.008 14.7105C187.505 20.1634 186.4 26.2744 185.413 32.1503C183.486 43.6907 181.488 56.3357 184.872 67.7821C185.06 68.4049 185.907 68.4989 186.247 67.9583C189.867 62.3997 197.341 60.4841 202.112 56.0537C207.107 51.4117 209.634 44.6308 210.445 38.0733C211.267 31.3864 210.879 24.7701 208.388 18.4358Z" fill="#A9C0C9"/>
<path d="M168.984 37.1095C167.221 27.614 163.085 18.1184 158.29 9.70408C158.125 9.41028 157.855 9.31627 157.597 9.35152C157.491 9.35152 157.373 9.37503 157.256 9.44554C152.449 11.9252 149.852 16.6612 148.242 21.5617C146.503 26.8148 145.598 33.2196 146.397 38.7195C147.443 45.8412 151.462 52.1167 156.762 56.982C161.099 60.9658 166.504 63.563 170.371 68.1228C170.806 68.6281 171.664 68.205 171.664 67.6057C171.57 57.4285 170.841 47.1221 168.984 37.1095Z" fill="#C7E0E8"/>
<path d="M191.877 2.6763C187.623 0.361171 182.664 -0.0383936 177.963 0.890006C177.669 0.948766 177.505 1.12504 177.446 1.32483C174.602 5.37923 174.191 11.0436 173.767 15.7797C173.109 23.2304 173.286 30.7633 173.626 38.2258C174.073 48.2854 174.919 58.3685 176.2 68.3694C176.247 68.769 176.506 69.1098 176.952 69.1098C179.831 69.1098 182.722 69.1098 185.602 69.1098C185.86 69.1098 186.13 68.9687 186.248 68.7455C194.228 54.0791 196.472 36.4395 197.8 20.0926C198.106 16.3673 198.352 12.6301 198.411 8.8813C198.458 6.42515 193.675 3.66345 191.877 2.6763Z" fill="#C7E0E8"/>
<path d="M179.902 3.79281C178.55 -4.01045 164.765 2.21805 161.122 4.88573C157.75 7.35363 156.833 9.68051 156.621 13.4529C156.257 19.7284 156.598 26.0392 157.397 32.2677C158.49 40.823 160.664 49.3432 164.143 57.2757C165.2 59.6966 166.364 62.0587 167.633 64.3738C168.209 65.4198 169.478 68.7573 170.712 69.0863C172.545 69.5799 175.048 69.1098 176.952 69.1098C177.328 69.1098 177.563 68.8866 177.645 68.6163C177.681 68.5458 177.704 68.4635 177.704 68.3695C178.891 54.1379 179.831 39.8711 180.325 25.6043C180.572 18.4474 181.124 10.891 179.902 3.79281Z" fill="#A9C0C9"/>
<path d="M169.467 69.4507C175.049 70.4966 180.936 70.4261 186.507 69.4507C188.105 69.1804 187.424 67.0415 185.837 67.3118C180.737 68.205 175.249 68.2637 170.136 67.3118C168.562 67.018 167.88 69.1569 169.467 69.4507Z" fill="#8CA8AF"/>
<path d="M171.867 222.639C171.754 222.639 171.659 222.599 171.58 222.52C171.501 222.442 171.462 222.346 171.462 222.233V211.241C171.462 211.118 171.501 211.016 171.58 210.938C171.659 210.859 171.754 210.819 171.867 210.819H176.392C177.27 210.819 178.035 210.96 178.688 211.241C179.341 211.512 179.848 211.928 180.208 212.491C180.568 213.042 180.748 213.735 180.748 214.568C180.748 215.412 180.568 216.11 180.208 216.661C179.848 217.202 179.341 217.607 178.688 217.877C178.035 218.147 177.27 218.282 176.392 218.282H173.876V222.233C173.876 222.346 173.837 222.442 173.758 222.52C173.69 222.599 173.595 222.639 173.471 222.639H171.867ZM173.842 216.408H176.307C176.96 216.408 177.461 216.256 177.81 215.952C178.159 215.637 178.334 215.176 178.334 214.568C178.334 214.005 178.17 213.555 177.844 213.217C177.518 212.868 177.005 212.694 176.307 212.694H173.842V216.408ZM181.124 222.639C181.034 222.639 180.949 222.605 180.87 222.537C180.803 222.47 180.769 222.385 180.769 222.284C180.769 222.239 180.78 222.188 180.803 222.132L184.872 211.241C184.906 211.129 184.968 211.033 185.058 210.954C185.159 210.864 185.294 210.819 185.463 210.819H187.303C187.472 210.819 187.602 210.864 187.692 210.954C187.782 211.033 187.849 211.129 187.894 211.241L191.964 222.132C191.975 222.188 191.981 222.239 191.981 222.284C191.981 222.385 191.947 222.47 191.879 222.537C191.812 222.605 191.733 222.639 191.643 222.639H190.174C190.016 222.639 189.898 222.605 189.819 222.537C189.752 222.459 189.707 222.385 189.684 222.318L188.891 220.258H183.876L183.082 222.318C183.06 222.385 183.009 222.459 182.93 222.537C182.863 222.605 182.75 222.639 182.593 222.639H181.124ZM184.467 218.316H188.3L186.375 213.099L184.467 218.316ZM197.919 222.808C196.883 222.808 195.999 222.627 195.268 222.267C194.547 221.907 193.985 221.389 193.579 220.714C193.185 220.027 192.971 219.211 192.938 218.266C192.926 217.781 192.921 217.264 192.921 216.712C192.921 216.149 192.926 215.62 192.938 215.125C192.971 214.191 193.185 213.391 193.579 212.727C193.985 212.063 194.553 211.551 195.285 211.191C196.028 210.831 196.906 210.65 197.919 210.65C198.74 210.65 199.461 210.763 200.08 210.988C200.699 211.202 201.211 211.483 201.616 211.832C202.033 212.17 202.343 212.536 202.545 212.93C202.759 213.324 202.872 213.69 202.883 214.027C202.894 214.129 202.866 214.213 202.798 214.281C202.731 214.348 202.641 214.382 202.528 214.382H200.789C200.677 214.382 200.592 214.359 200.536 214.314C200.48 214.269 200.429 214.202 200.384 214.112C200.294 213.875 200.153 213.645 199.962 213.42C199.77 213.183 199.512 212.986 199.185 212.829C198.859 212.671 198.437 212.592 197.919 212.592C197.153 212.592 196.54 212.795 196.078 213.2C195.628 213.605 195.386 214.275 195.352 215.209C195.318 216.189 195.318 217.179 195.352 218.181C195.386 219.138 195.634 219.825 196.095 220.241C196.568 220.658 197.187 220.866 197.952 220.866C198.459 220.866 198.909 220.776 199.303 220.596C199.708 220.416 200.024 220.134 200.249 219.751C200.485 219.369 200.603 218.879 200.603 218.282V217.759H198.543C198.431 217.759 198.335 217.72 198.256 217.641C198.178 217.562 198.138 217.461 198.138 217.337V216.442C198.138 216.318 198.178 216.217 198.256 216.138C198.335 216.059 198.431 216.02 198.543 216.02H202.579C202.703 216.02 202.798 216.059 202.866 216.138C202.945 216.217 202.984 216.318 202.984 216.442V218.215C202.984 219.16 202.776 219.977 202.359 220.663C201.954 221.35 201.369 221.879 200.603 222.25C199.849 222.622 198.954 222.808 197.919 222.808ZM205.554 222.639C205.441 222.639 205.346 222.599 205.267 222.52C205.188 222.442 205.149 222.346 205.149 222.233V211.241C205.149 211.118 205.188 211.016 205.267 210.938C205.346 210.859 205.441 210.819 205.554 210.819H212.983C213.107 210.819 213.208 210.859 213.287 210.938C213.366 211.016 213.405 211.118 213.405 211.241V212.356C213.405 212.468 213.366 212.564 213.287 212.643C213.208 212.722 213.107 212.761 212.983 212.761H207.428V215.75H212.612C212.736 215.75 212.837 215.789 212.916 215.868C212.995 215.935 213.034 216.031 213.034 216.155V217.202C213.034 217.326 212.995 217.427 212.916 217.506C212.837 217.573 212.736 217.607 212.612 217.607H207.428V220.697H213.118C213.242 220.697 213.343 220.736 213.422 220.815C213.501 220.894 213.54 220.995 213.54 221.119V222.233C213.54 222.346 213.501 222.442 213.422 222.52C213.343 222.599 213.242 222.639 213.118 222.639H205.554ZM219.916 222.639C219.803 222.639 219.708 222.599 219.629 222.52C219.55 222.442 219.511 222.346 219.511 222.233V211.241C219.511 211.118 219.55 211.016 219.629 210.938C219.708 210.859 219.803 210.819 219.916 210.819H221.216C221.374 210.819 221.486 210.859 221.554 210.938C221.633 211.005 221.683 211.056 221.706 211.089L226.569 218.654V211.241C226.569 211.118 226.602 211.016 226.67 210.938C226.749 210.859 226.85 210.819 226.974 210.819H228.392C228.516 210.819 228.617 210.859 228.696 210.938C228.775 211.016 228.814 211.118 228.814 211.241V222.217C228.814 222.34 228.775 222.442 228.696 222.52C228.617 222.599 228.522 222.639 228.409 222.639H227.092C226.934 222.639 226.822 222.599 226.754 222.52C226.687 222.442 226.636 222.391 226.602 222.369L221.756 214.973V222.233C221.756 222.346 221.717 222.442 221.638 222.52C221.559 222.599 221.458 222.639 221.334 222.639H219.916ZM235.991 222.808C234.989 222.808 234.128 222.644 233.407 222.318C232.687 221.98 232.124 221.468 231.719 220.781C231.314 220.083 231.094 219.217 231.06 218.181C231.049 217.697 231.044 217.219 231.044 216.746C231.044 216.273 231.049 215.789 231.06 215.294C231.094 214.269 231.319 213.414 231.736 212.727C232.152 212.041 232.721 211.523 233.441 211.174C234.173 210.825 235.023 210.65 235.991 210.65C236.959 210.65 237.809 210.825 238.54 211.174C239.272 211.523 239.846 212.041 240.263 212.727C240.679 213.414 240.904 214.269 240.938 215.294C240.961 215.789 240.972 216.273 240.972 216.746C240.972 217.219 240.961 217.697 240.938 218.181C240.904 219.217 240.685 220.083 240.28 220.781C239.874 221.468 239.306 221.98 238.574 222.318C237.854 222.644 236.993 222.808 235.991 222.808ZM235.991 220.866C236.722 220.866 237.319 220.652 237.781 220.224C238.242 219.785 238.49 219.076 238.523 218.097C238.546 217.601 238.557 217.145 238.557 216.729C238.557 216.301 238.546 215.845 238.523 215.361C238.501 214.708 238.377 214.179 238.152 213.774C237.938 213.358 237.645 213.059 237.274 212.879C236.903 212.688 236.475 212.592 235.991 212.592C235.518 212.592 235.096 212.688 234.724 212.879C234.353 213.059 234.055 213.358 233.83 213.774C233.616 214.179 233.497 214.708 233.475 215.361C233.464 215.845 233.458 216.301 233.458 216.729C233.458 217.145 233.464 217.601 233.475 218.097C233.509 219.076 233.756 219.785 234.218 220.224C234.679 220.652 235.27 220.866 235.991 220.866ZM245.98 222.639C245.868 222.639 245.772 222.599 245.693 222.52C245.614 222.442 245.575 222.346 245.575 222.233V212.896H242.451C242.339 212.896 242.243 212.857 242.164 212.778C242.085 212.699 242.046 212.603 242.046 212.491V211.241C242.046 211.118 242.085 211.016 242.164 210.938C242.243 210.859 242.339 210.819 242.451 210.819H251.062C251.186 210.819 251.288 210.859 251.366 210.938C251.445 211.016 251.485 211.118 251.485 211.241V212.491C251.485 212.603 251.445 212.699 251.366 212.778C251.288 212.857 251.186 212.896 251.062 212.896H247.956V222.233C247.956 222.346 247.916 222.442 247.837 222.52C247.759 222.599 247.657 222.639 247.534 222.639H245.98ZM257.049 222.639C256.937 222.639 256.841 222.599 256.762 222.52C256.683 222.442 256.644 222.346 256.644 222.233V211.241C256.644 211.118 256.683 211.016 256.762 210.938C256.841 210.859 256.937 210.819 257.049 210.819H264.377C264.501 210.819 264.602 210.859 264.681 210.938C264.76 211.016 264.799 211.118 264.799 211.241V212.423C264.799 212.547 264.76 212.648 264.681 212.727C264.602 212.795 264.501 212.829 264.377 212.829H258.957V216.037H264.04C264.163 216.037 264.265 216.076 264.344 216.155C264.422 216.234 264.462 216.335 264.462 216.459V217.641C264.462 217.753 264.422 217.849 264.344 217.928C264.265 218.007 264.163 218.046 264.04 218.046H258.957V222.233C258.957 222.346 258.918 222.442 258.839 222.52C258.76 222.599 258.659 222.639 258.535 222.639H257.049ZM271.244 222.808C270.243 222.808 269.381 222.644 268.661 222.318C267.941 221.98 267.378 221.468 266.973 220.781C266.567 220.083 266.348 219.217 266.314 218.181C266.303 217.697 266.297 217.219 266.297 216.746C266.297 216.273 266.303 215.789 266.314 215.294C266.348 214.269 266.573 213.414 266.989 212.727C267.406 212.041 267.974 211.523 268.695 211.174C269.426 210.825 270.276 210.65 271.244 210.65C272.212 210.65 273.062 210.825 273.794 211.174C274.526 211.523 275.1 212.041 275.516 212.727C275.933 213.414 276.158 214.269 276.192 215.294C276.214 215.789 276.225 216.273 276.225 216.746C276.225 217.219 276.214 217.697 276.192 218.181C276.158 219.217 275.938 220.083 275.533 220.781C275.128 221.468 274.559 221.98 273.828 222.318C273.107 222.644 272.246 222.808 271.244 222.808ZM271.244 220.866C271.976 220.866 272.573 220.652 273.034 220.224C273.496 219.785 273.743 219.076 273.777 218.097C273.8 217.601 273.811 217.145 273.811 216.729C273.811 216.301 273.8 215.845 273.777 215.361C273.755 214.708 273.631 214.179 273.406 213.774C273.192 213.358 272.899 213.059 272.528 212.879C272.156 212.688 271.728 212.592 271.244 212.592C270.772 212.592 270.349 212.688 269.978 212.879C269.607 213.059 269.308 213.358 269.083 213.774C268.869 214.179 268.751 214.708 268.729 215.361C268.717 215.845 268.712 216.301 268.712 216.729C268.712 217.145 268.717 217.601 268.729 218.097C268.762 219.076 269.01 219.785 269.471 220.224C269.933 220.652 270.524 220.866 271.244 220.866ZM283.153 222.808C282.174 222.808 281.324 222.644 280.604 222.318C279.883 221.98 279.326 221.468 278.932 220.781C278.538 220.083 278.341 219.194 278.341 218.114V211.241C278.341 211.118 278.381 211.016 278.459 210.938C278.538 210.859 278.634 210.819 278.747 210.819H280.283C280.407 210.819 280.503 210.859 280.57 210.938C280.649 211.016 280.688 211.118 280.688 211.241V218.114C280.688 219.037 280.908 219.723 281.347 220.173C281.786 220.612 282.388 220.832 283.153 220.832C283.919 220.832 284.515 220.612 284.943 220.173C285.382 219.723 285.602 219.037 285.602 218.114V211.241C285.602 211.118 285.641 211.016 285.72 210.938C285.799 210.859 285.9 210.819 286.024 210.819H287.543C287.667 210.819 287.763 210.859 287.831 210.938C287.909 211.016 287.949 211.118 287.949 211.241V218.114C287.949 219.194 287.752 220.083 287.358 220.781C286.975 221.468 286.423 221.98 285.703 222.318C284.994 222.644 284.144 222.808 283.153 222.808ZM290.885 222.639C290.772 222.639 290.677 222.599 290.598 222.52C290.519 222.442 290.48 222.346 290.48 222.233V211.241C290.48 211.118 290.519 211.016 290.598 210.938C290.677 210.859 290.772 210.819 290.885 210.819H292.185C292.343 210.819 292.455 210.859 292.523 210.938C292.601 211.005 292.652 211.056 292.675 211.089L297.537 218.654V211.241C297.537 211.118 297.571 211.016 297.639 210.938C297.718 210.859 297.819 210.819 297.943 210.819H299.361C299.485 210.819 299.586 210.859 299.665 210.938C299.744 211.016 299.783 211.118 299.783 211.241V222.217C299.783 222.34 299.744 222.442 299.665 222.52C299.586 222.599 299.49 222.639 299.378 222.639H298.061C297.903 222.639 297.791 222.599 297.723 222.52C297.656 222.442 297.605 222.391 297.571 222.369L292.725 214.973V222.233C292.725 222.346 292.686 222.442 292.607 222.52C292.528 222.599 292.427 222.639 292.303 222.639H290.885ZM302.823 222.639C302.71 222.639 302.615 222.599 302.536 222.52C302.457 222.442 302.418 222.346 302.418 222.233V211.241C302.418 211.118 302.457 211.016 302.536 210.938C302.615 210.859 302.71 210.819 302.823 210.819H306.943C308.08 210.819 309.014 210.994 309.746 211.343C310.489 211.692 311.046 212.209 311.417 212.896C311.8 213.583 311.997 214.421 312.008 215.412C312.031 215.907 312.042 216.346 312.042 216.729C312.042 217.112 312.031 217.545 312.008 218.029C311.986 219.076 311.794 219.943 311.434 220.629C311.074 221.305 310.528 221.811 309.796 222.149C309.076 222.475 308.153 222.639 307.027 222.639H302.823ZM304.765 220.697H306.943C307.573 220.697 308.085 220.607 308.479 220.427C308.873 220.247 309.16 219.96 309.34 219.566C309.532 219.16 309.633 218.631 309.644 217.978C309.656 217.641 309.661 217.348 309.661 217.1C309.673 216.842 309.673 216.588 309.661 216.341C309.661 216.082 309.656 215.789 309.644 215.463C309.622 214.54 309.391 213.859 308.952 213.42C308.513 212.981 307.815 212.761 306.858 212.761H304.765V220.697Z" fill="white"/>
<path d="M217.295 177.908C216.659 177.908 216.119 177.685 215.674 177.24C215.229 176.795 215.007 176.255 215.007 175.619V163.415H184.781C184.081 163.415 183.509 163.192 183.064 162.747C182.683 162.302 182.492 161.762 182.492 161.126V154.642C182.492 154.261 182.556 153.816 182.683 153.308C182.874 152.735 183.16 152.227 183.541 151.782L211.669 112.784C212.496 111.703 213.672 111.163 215.197 111.163H225.59C226.226 111.163 226.766 111.385 227.211 111.83C227.656 112.275 227.879 112.816 227.879 113.451V152.163H236.365C237.128 152.163 237.7 152.386 238.081 152.831C238.526 153.212 238.749 153.752 238.749 154.452V161.126C238.749 161.762 238.526 162.302 238.081 162.747C237.636 163.192 237.096 163.415 236.46 163.415H227.879V175.619C227.879 176.255 227.656 176.795 227.211 177.24C226.766 177.685 226.226 177.908 225.59 177.908H217.295ZM195.746 152.545H215.293V124.989L195.746 152.545ZM273.107 178.861C268.594 178.861 264.748 178.194 261.57 176.859C258.392 175.524 255.785 173.681 253.751 171.329C251.717 168.977 250.192 166.275 249.174 163.224C248.157 160.109 247.554 156.804 247.363 153.308C247.299 151.591 247.236 149.716 247.172 147.682C247.172 145.584 247.172 143.487 247.172 141.389C247.236 139.291 247.299 137.352 247.363 135.572C247.49 132.076 248.094 128.803 249.174 125.751C250.255 122.637 251.812 119.935 253.847 117.647C255.944 115.358 258.582 113.547 261.761 112.212C264.939 110.877 268.721 110.209 273.107 110.209C277.557 110.209 281.371 110.877 284.549 112.212C287.727 113.547 290.334 115.358 292.368 117.647C294.466 119.935 296.023 122.637 297.04 125.751C298.121 128.803 298.724 132.076 298.852 135.572C298.979 137.352 299.042 139.291 299.042 141.389C299.042 143.487 299.042 145.584 299.042 147.682C299.042 149.716 298.979 151.591 298.852 153.308C298.724 156.804 298.152 160.109 297.135 163.224C296.118 166.275 294.593 168.977 292.559 171.329C290.524 173.681 287.886 175.524 284.645 176.859C281.466 178.194 277.62 178.861 273.107 178.861ZM273.107 167.896C277.239 167.896 280.258 166.561 282.165 163.891C284.136 161.158 285.153 157.471 285.217 152.831C285.344 150.987 285.407 149.144 285.407 147.3C285.407 145.393 285.407 143.487 285.407 141.58C285.407 139.673 285.344 137.861 285.217 136.145C285.153 131.631 284.136 128.008 282.165 125.275C280.258 122.478 277.239 121.079 273.107 121.079C269.039 121.079 266.02 122.478 264.049 125.275C262.142 128.008 261.125 131.631 260.998 136.145C260.998 137.861 260.966 139.673 260.902 141.58C260.902 143.487 260.902 145.393 260.902 147.3C260.966 149.144 260.998 150.987 260.998 152.831C261.125 157.471 262.174 161.158 264.144 163.891C266.115 166.561 269.103 167.896 273.107 167.896ZM342.162 177.908C341.526 177.908 340.986 177.685 340.541 177.24C340.096 176.795 339.874 176.255 339.874 175.619V163.415H309.648C308.948 163.415 308.376 163.192 307.931 162.747C307.55 162.302 307.359 161.762 307.359 161.126V154.642C307.359 154.261 307.423 153.816 307.55 153.308C307.741 152.735 308.027 152.227 308.408 151.782L336.536 112.784C337.363 111.703 338.539 111.163 340.064 111.163H350.457C351.093 111.163 351.633 111.385 352.078 111.83C352.523 112.275 352.746 112.816 352.746 113.451V152.163H361.232C361.995 152.163 362.567 152.386 362.948 152.831C363.393 153.212 363.616 153.752 363.616 154.452V161.126C363.616 161.762 363.393 162.302 362.948 162.747C362.503 163.192 361.963 163.415 361.327 163.415H352.746V175.619C352.746 176.255 352.523 176.795 352.078 177.24C351.633 177.685 351.093 177.908 350.457 177.908H342.162ZM320.613 152.545H340.16V124.989L320.613 152.545Z" fill="white"/>
<path d="M233.673 101.113C232.082 101.113 230.714 100.854 229.57 100.336C228.426 99.7993 227.532 98.9859 226.888 97.8953C226.244 96.7869 225.896 95.4103 225.842 93.7655C225.824 92.9967 225.815 92.2369 225.815 91.486C225.815 90.7352 225.824 89.9664 225.842 89.1798C225.896 87.5529 226.253 86.1941 226.915 85.1036C227.576 84.013 228.479 83.1906 229.623 82.6364C230.785 82.0822 232.135 81.8051 233.673 81.8051C235.21 81.8051 236.56 82.0822 237.722 82.6364C238.884 83.1906 239.796 84.013 240.457 85.1036C241.119 86.1941 241.476 87.5529 241.53 89.1798C241.566 89.9664 241.584 90.7352 241.584 91.486C241.584 92.2369 241.566 92.9967 241.53 93.7655C241.476 95.4103 241.128 96.7869 240.484 97.8953C239.841 98.9859 238.938 99.7993 237.776 100.336C236.632 100.854 235.264 101.113 233.673 101.113ZM233.673 98.0294C234.835 98.0294 235.782 97.6897 236.515 97.0104C237.248 96.3131 237.642 95.1868 237.695 93.6314C237.731 92.8448 237.749 92.1207 237.749 91.4592C237.749 90.7799 237.731 90.0558 237.695 89.287C237.66 88.2501 237.463 87.4098 237.105 86.7662C236.766 86.1047 236.301 85.631 235.711 85.3449C235.121 85.041 234.441 84.889 233.673 84.889C232.922 84.889 232.251 85.041 231.661 85.3449C231.071 85.631 230.598 86.1047 230.24 86.7662C229.9 87.4098 229.713 88.2501 229.677 89.287C229.659 90.0558 229.65 90.7799 229.65 91.4592C229.65 92.1207 229.659 92.8448 229.677 93.6314C229.731 95.1868 230.124 96.3131 230.857 97.0104C231.59 97.6897 232.529 98.0294 233.673 98.0294ZM250.951 101.113C249.521 101.113 248.314 100.863 247.331 100.363C246.366 99.8619 245.624 99.1557 245.105 98.244C244.605 97.3322 244.319 96.2684 244.247 95.0527C244.229 94.7309 244.22 94.3376 244.22 93.8728C244.22 93.4079 244.229 93.0146 244.247 92.6928C244.319 91.4592 244.614 90.3955 245.132 89.5016C245.668 88.5898 246.419 87.8836 247.385 87.383C248.368 86.8824 249.557 86.6322 250.951 86.6322C252.346 86.6322 253.526 86.8824 254.491 87.383C255.474 87.8836 256.225 88.5898 256.744 89.5016C257.28 90.3955 257.584 91.4592 257.656 92.6928C257.673 93.0146 257.682 93.4079 257.682 93.8728C257.682 94.3376 257.673 94.7309 257.656 95.0527C257.584 96.2684 257.289 97.3322 256.771 98.244C256.27 99.1557 255.528 99.8619 254.545 100.363C253.579 100.863 252.382 101.113 250.951 101.113ZM250.951 98.4585C251.899 98.4585 252.632 98.1635 253.15 97.5735C253.669 96.9657 253.955 96.0807 254.008 94.9186C254.026 94.6505 254.035 94.3018 254.035 93.8728C254.035 93.4437 254.026 93.0951 254.008 92.8269C253.955 91.6827 253.669 90.8067 253.15 90.1988C252.632 89.591 251.899 89.287 250.951 89.287C250.004 89.287 249.271 89.591 248.752 90.1988C248.234 90.8067 247.948 91.6827 247.894 92.8269C247.876 93.0951 247.867 93.4437 247.867 93.8728C247.867 94.3018 247.876 94.6505 247.894 94.9186C247.948 96.0807 248.234 96.9657 248.752 97.5735C249.271 98.1635 250.004 98.4585 250.951 98.4585ZM261.324 105.94C261.145 105.94 260.993 105.878 260.868 105.753C260.743 105.628 260.68 105.476 260.68 105.297V87.5439C260.68 87.3652 260.743 87.2132 260.868 87.088C260.993 86.9629 261.145 86.9003 261.324 86.9003H263.443C263.639 86.9003 263.791 86.9629 263.899 87.088C264.024 87.2132 264.086 87.3652 264.086 87.5439V88.6166C264.515 88.0445 265.078 87.5707 265.776 87.1953C266.473 86.8199 267.34 86.6322 268.377 86.6322C269.325 86.6322 270.147 86.7841 270.844 87.088C271.541 87.392 272.122 87.83 272.587 88.4021C273.052 88.9563 273.41 89.6178 273.66 90.3865C273.91 91.1553 274.053 92.0045 274.089 92.9342C274.107 93.2381 274.116 93.551 274.116 93.8728C274.116 94.1946 274.107 94.5164 274.089 94.8382C274.071 95.7321 273.937 96.5634 273.687 97.3322C273.436 98.0831 273.07 98.7445 272.587 99.3166C272.122 99.8709 271.541 100.309 270.844 100.631C270.147 100.952 269.325 101.113 268.377 101.113C267.412 101.113 266.589 100.944 265.91 100.604C265.23 100.246 264.676 99.7815 264.247 99.2094V105.297C264.247 105.476 264.185 105.628 264.059 105.753C263.952 105.878 263.8 105.94 263.604 105.94H261.324ZM267.385 98.244C268.154 98.244 268.752 98.0831 269.181 97.7612C269.611 97.4216 269.914 96.9836 270.093 96.4472C270.29 95.9109 270.406 95.3209 270.442 94.6773C270.478 94.1409 270.478 93.6046 270.442 93.0683C270.406 92.4246 270.29 91.8347 270.093 91.2983C269.914 90.762 269.611 90.3329 269.181 90.0111C268.752 89.6714 268.154 89.5016 267.385 89.5016C266.652 89.5016 266.053 89.6714 265.588 90.0111C265.141 90.3508 264.81 90.7888 264.596 91.3251C264.399 91.8436 264.283 92.3799 264.247 92.9342C264.229 93.256 264.22 93.5957 264.22 93.9532C264.22 94.3108 264.229 94.6594 264.247 94.9991C264.265 95.5354 264.39 96.0539 264.623 96.5545C264.855 97.0372 265.195 97.4394 265.642 97.7612C266.089 98.0831 266.67 98.244 267.385 98.244ZM282.409 101.113C281.337 101.113 280.416 100.988 279.647 100.738C278.896 100.488 278.279 100.175 277.797 99.7993C277.314 99.4239 276.956 99.0485 276.724 98.673C276.492 98.2976 276.366 97.9847 276.349 97.7344C276.331 97.5378 276.384 97.3858 276.509 97.2785C276.653 97.1534 276.804 97.0908 276.965 97.0908H279.084C279.155 97.0908 279.218 97.0998 279.272 97.1176C279.325 97.1355 279.397 97.1891 279.486 97.2785C279.719 97.4752 279.96 97.6808 280.21 97.8953C280.478 98.1099 280.791 98.2976 281.149 98.4585C281.506 98.6015 281.953 98.673 282.49 98.673C283.187 98.673 283.768 98.5389 284.233 98.2708C284.716 97.9847 284.957 97.5825 284.957 97.064C284.957 96.6886 284.85 96.3846 284.635 96.1522C284.438 95.9198 284.063 95.7142 283.509 95.5354C282.955 95.3388 282.168 95.1332 281.149 94.9186C280.148 94.6862 279.316 94.3912 278.655 94.0337C277.993 93.6761 277.502 93.2292 277.18 92.6928C276.858 92.1565 276.697 91.5307 276.697 90.8156C276.697 90.1184 276.903 89.4569 277.314 88.8312C277.743 88.1875 278.369 87.6601 279.191 87.2489C280.031 86.8377 281.068 86.6322 282.302 86.6322C283.267 86.6322 284.108 86.7573 284.823 87.0076C285.538 87.24 286.128 87.535 286.593 87.8926C287.075 88.2501 287.442 88.6166 287.692 88.9921C287.943 89.3496 288.077 89.6625 288.094 89.9307C288.112 90.1273 288.059 90.2882 287.934 90.4134C287.808 90.5206 287.665 90.5743 287.504 90.5743H285.52C285.431 90.5743 285.35 90.5564 285.279 90.5206C285.207 90.4849 285.136 90.4402 285.064 90.3865C284.867 90.2078 284.653 90.02 284.421 89.8234C284.188 89.6267 283.902 89.4569 283.562 89.3139C283.241 89.153 282.811 89.0725 282.275 89.0725C281.596 89.0725 281.077 89.2245 280.72 89.5284C280.362 89.8144 280.183 90.1809 280.183 90.6279C280.183 90.9318 280.264 91.2 280.425 91.4324C280.604 91.6469 280.952 91.8525 281.471 92.0492C281.989 92.2459 282.776 92.4515 283.831 92.666C285.028 92.8805 285.976 93.2023 286.673 93.6314C287.388 94.0426 287.889 94.5253 288.175 95.0795C288.479 95.6159 288.631 96.2148 288.631 96.8763C288.631 97.6808 288.389 98.4049 287.907 99.0485C287.442 99.6921 286.745 100.202 285.815 100.577C284.903 100.935 283.768 101.113 282.409 101.113ZM292.123 95.6427C291.944 95.6427 291.792 95.5891 291.667 95.4818C291.542 95.3566 291.479 95.1957 291.479 94.9991V82.7169C291.479 82.5381 291.542 82.3861 291.667 82.261C291.792 82.1358 291.944 82.0732 292.123 82.0732H294.295C294.492 82.0732 294.644 82.1358 294.751 82.261C294.876 82.3861 294.939 82.5381 294.939 82.7169V94.9991C294.939 95.1957 294.876 95.3566 294.751 95.4818C294.644 95.5891 294.492 95.6427 294.295 95.6427H292.123ZM291.962 100.845C291.766 100.845 291.605 100.783 291.479 100.657C291.372 100.532 291.319 100.38 291.319 100.202V97.7076C291.319 97.511 291.372 97.3501 291.479 97.2249C291.605 97.0998 291.766 97.0372 291.962 97.0372H294.456C294.653 97.0372 294.814 97.0998 294.939 97.2249C295.064 97.3501 295.127 97.511 295.127 97.7076V100.202C295.127 100.38 295.064 100.532 294.939 100.657C294.814 100.783 294.653 100.845 294.456 100.845H291.962Z" fill="#A9C0C9"/>
</svg>
